<?xml version="1.0" encoding="utf-8"?>
<!-- Generator: Adobe Illustrator 24.3.0, SVG Export Plug-In . SVG Version: 6.00 Build 0)  -->
<svg version="1.1" id="Camada_1" xmlns="http://www.w3.org/2000/svg" xmlns:xlink="http://www.w3.org/1999/xlink" x="0px" y="0px"
	 viewBox="0 0 1080 1080" style="enable-background:new 0 0 1080 1080;" xml:space="preserve">
<style type="text/css">
	.st0{fill:#040740;}
	.st1{fill:#FFFFFF;}
	.st2{fill:#732C12;}
</style>
<g>
	<path class="st0" d="M577.26,609.26c-2.42,1.12-4.63,2.67-7.28,3.33c-4.44,1.11-7.22-1.03-7.22-5.57c0-3.64,1.38-6.87,3.33-9.75
		c7.03-10.41,16.27-17.9,28.68-21.04c1.87-0.47,3.75-0.52,5.64-0.47c1.76,0.06,3.44,0.58,4.14,2.38c0.7,1.81,0.79,3.66-0.52,5.36
		c-2.21,2.87-5.19,4.77-8.83,6.82c3.32,0.6,2.68,1.74,1.27,3.36c-2.88,3.3-5.59,6.75-8.32,10.18c-0.5,0.63-1.41,1.16-1.06,2.46
		c1.65-0.39,3.95-2.34,4.74-0.79c0.81,1.58-1.94,2.56-3.25,3.57c-6.79,5.23-13.57,10.45-19.1,17.09c-0.5,0.6-1.15,1.2-1.85,1.47
		c-1.41,0.56-3.03,0.91-4.13-0.46c-0.97-1.21,0.29-2.21,0.9-3.14c1.11-1.67,2.63-3,4.23-4.19c3.8-2.81,6.83-6.35,9.87-9.91
		c0.14-0.44,0.45-0.83,0.39-1.32C578.31,608.77,577.83,609.13,577.26,609.26z"/>
	<path class="st0" d="M423.92,606.93c-4.93,5.26-10.98,7.75-18.2,7.21c-2.79-0.21-5.29-1.05-6.61-3.94c-1.09,0.75-1.4,2.03-1.98,3.1
		c-0.7,1.28-1.61,1.71-2.94,1.23c-1.41-0.51-1.67-1.71-1.33-2.94c0.32-1.13,0.87-2.22,1.45-3.25c4.53-8.08,9.48-15.9,14.7-23.56
		c0.5-0.73,1.07-1.52,1.8-1.94c1.21-0.7,2.88-1.24,3.91-0.28c0.93,0.86-0.48,1.93-1,2.8c-1.72,2.91-3.55,5.75-5.63,9.07
		c6.01-1.81,11.13-4.22,15.44-8.17c1.02-0.94,1.97-2.1,1.49-3.67c-0.49-1.57-1.87-1.96-3.29-2.17c-6.96-1.02-13.21,0.85-18.91,4.8
		c-0.44,0.31-1.17,0.58-0.91,1.34c0.86,2.51-1.32,1.95-2.32,2.06c-1.58,0.17-2.65-0.75-2.66-2.49c-0.02-1.99,1.09-3.43,2.57-4.49
		c7.41-5.36,15.66-7.33,24.58-5.17c6.5,1.57,7.99,7.21,3.63,12.31c-1.32,1.54-2.9,2.74-4.6,3.76c-1.7,1.01-3.5,1.87-5.55,2.95
		c4.87,1.48,9.03,3.49,7.5,9.67"/>
	<path class="st0" d="M514.9,580.52c-2.83,0.22-5.42,1.22-7.93,2.46c-1.12,0.56-0.88,0.69-1.79,2.75c-0.53,1.19-2,1.9-3.43,2.2
		c-1.03,0.22-2.06,0.15-2.73-0.73c-0.82-1.08-0.58-2.32,0.06-3.38c1.21-2.01,2.95-3.49,5.05-4.53c7.19-3.58,14.75-4.2,22.4-2.11
		c9.1,2.49,12.29,10.05,7.82,18.41c-5.47,10.24-14.78,15.22-25.62,17.89c-2.82,0.69-5.72,0.85-8.61,0.57
		c-3.14-0.3-4.4-2.25-3.37-5.2c0.45-1.3,1.12-2.55,1.83-3.74c4.59-7.71,9.74-15.05,14.97-22.34c0.52-0.73,0.95-1.55,1.99-1.63
		c1-0.76,2.12-0.53,3.23-0.39c1.83,1.5,0.5,2.87-0.31,4.1c-4.44,6.79-9.04,13.49-13.35,20.36c-0.58,0.92-1.26,1.78-1.71,2.77
		c-0.04,1.66,1.07,0.69,1.73,0.75c8.81-1.23,15.89-5.53,21.65-12.17c0.46-0.53,0.85-1.1,1.24-1.69c3.85-5.88,2.01-11.04-4.73-13.24
		c-0.66-0.22-1.36-0.31-2.04-0.48C519.2,580.43,517.04,580.6,514.9,580.52z"/>
	<path class="st0" d="M629.64,596.3c2.01-1.02,3.45-2.65,5.47-3.26c1.45-0.44,3.01-0.99,4.17,0.39c1.06,1.27,0.4,2.64-0.32,3.87
		c-0.81,1.37-1.61,2.75-2.52,4.06c-0.66,0.94-1.31,2.32-2.75,1.77c-1.55-0.59-1.43-1.94-0.89-3.29c0.13-0.33,0.1-0.72,0.21-1.68
		c-3.88,2.66-6.48,5.88-9.3,8.86c-1.02,1.08-2.19,2.14-2.81,3.43c-1.66,3.48-4.93,3.88-8.06,4.46c-3.05,0.56-4.38-0.92-5.19-5.5
		c-2,1.58-3.68,3.43-5.88,4.6c-1.75,0.94-3.58,1.38-5.38,0.21c-1.81-1.17-2.08-3-1.92-4.98c0.52-6.15,7.87-14.32,13.87-15.31
		c1.35-0.22,2.83-0.53,4.08,0.31c0.93,0.63,1.63,0.77,2.58,0.02c0.91-0.72,2.01-0.44,2.72,0.31c0.75,0.78,0.17,1.65-0.33,2.43
		c-2.19,3.46-3.98,7.1-5.12,11.05c-0.28,0.96-0.68,2.1,0.23,2.78c1.02,0.75,1.81-0.37,2.62-0.84c1.06-0.62,1.71-1.61,2.33-2.66
		c2.09-3.62,4.24-7.2,6.39-10.79c0.51-0.85,1.02-1.72,1.65-2.48c1.04-1.25,2.61-1.96,4.01-1.34
		C631.01,593.37,629.17,594.78,629.64,596.3z"/>
	<path class="st0" d="M456.98,596.28c1.51-0.96,2.99-1.96,4.53-2.85c1.24-0.72,2.6-1.22,3.91-0.21c1.38,1.07,1.35,2.47,0.54,3.93
		c1.51,0.69,2.09-0.5,2.84-1.16c2.05-1.8,4.26-3.24,6.99-3.78c1.32-0.26,2.63-0.44,3.55,0.8c0.89,1.19,0.17,2.32-0.43,3.32
		c-2.16,3.57-4.42,7.09-6.57,10.67c-0.68,1.12-1.95,2.52-0.52,3.68c1.37,1.11,2.59-0.36,3.64-1.13c1.2-0.88,2.23-1.98,3.32-3
		c1.22-1.15,1.66-0.47,1.89,0.77c0.39,2.13-2.48,5.62-6,7.12c-2.48,1.06-4.98,0.96-6.88-1.08c-1.52-1.63-1.15-3.72-0.29-5.61
		c0.78-1.71,1.65-3.4,2.61-5.01c0.91-1.53,2-2.94,3.04-4.45c-1.53-0.99-2.08,0.43-2.75,1.04c-4.21,3.83-8.01,8.04-11.46,12.57
		c-0.36,0.48-0.72,0.95-1.07,1.43c-0.96,1.33-2.33,1.22-3.49,0.63c-1.57-0.81-0.33-1.9,0.13-2.72c2.04-3.65,4.2-7.22,6.22-10.88
		c0.47-0.86,1.78-2.02,0.64-2.83c-0.94-0.67-1.94,0.65-2.71,1.37c-4.1,3.81-7.77,7.99-10.76,12.75c-0.77,1.22-1.41,2.73-3.29,2.6
		c-1.39-0.1-2.41-0.44-1.63-2.19c2.76-6.19,5.88-12.17,9.72-17.77c0.06-0.08,0.1-0.18,0.18-0.24c1.25-1.07,2.88-2.19,4.25-1.13
		c1.39,1.08-0.6,2.14-0.94,3.27c0.14,0.13-0.48,0.43,0.07,0.42C456.49,596.59,456.73,596.36,456.98,596.28z"/>
	<path class="st0" d="M650.98,604.12c1.82,2.61,1.51,5.09,0.11,7.61c-4.04,7.3-9.66,13.1-16.63,17.63
		c-1.57,1.02-3.36,1.56-5.04,0.41c-1.9-1.3-1.15-3.2-0.65-4.9c1.67-5.6,5.05-10.33,7.85-15.35c0.58-1.03,2.12-2.14-0.49-2.83
		c-0.85-0.22-1.09-1.57-0.27-2.56c0.7-0.85,1.39-1.96,2.46-2.08c3.57-0.39,4.67-3.22,6.22-5.73c3.87-6.26,7.86-12.45,11.75-18.69
		c1.35-2.16,3.21-3.06,6.32-2.93c-5.62,8.93-10.99,17.46-16.51,26.23c1.76,0.3,3.06-0.11,4.39-0.38c1.57-0.31,3.15-0.54,4.7,0.17
		c0.54,0.25,1.12,0.4,1.12,1.19c0,0.81-0.58,0.95-1.16,1.1C653.83,603.37,652.49,603.72,650.98,604.12z"/>
	<path class="st0" d="M425.58,605.12c2.23-4.97,5.8-8.65,10.51-11.38c3.25-1.88,6.12-0.66,8.94,0.74c1.45,0.72,1.4,2.44,0.93,3.75
		c-2.61,7.31-7.14,13.07-14.43,16.1c-4.38,1.82-6.98-0.63-6.91-6.05"/>
	<path class="st0" d="M655.64,609.35c0.22-6.52,7.72-15.33,14.11-16.54c2.53-0.48,4.84,0.66,6.52,2.09
		c1.67,1.43,0.72,3.81-0.16,5.58c-2.97,6.03-6.99,11.17-13.44,13.79C658.44,615.98,655.49,613.81,655.64,609.35z"/>
	<path class="st0" d="M539.06,601.56c1.43,0.47,2.51-0.2,3.63-0.48c1.09-0.27,1.74,0.27,2.14,1.15c0.43,0.96-0.25,1.53-0.98,1.89
		c-2.23,1.1-4.47,2.2-6.43,3.75c-0.66,0.52-1.58,1.05-1.18,2.17c0.35,0.99,1.23,1.22,2.15,1.36c2.77,0.43,5.03-0.77,7.19-2.26
		c0.9-0.63,1.72-1.37,2.64-1.95c0.69-0.43,1.27-1.7,2.16-1.03c0.95,0.72,0.73,2.06,0.3,3.06c-1.98,4.63-12.9,7.58-17.06,4.67
		c-2.99-2.09-2.63-5.86,0.88-8.06c1.06-0.66,1.9-0.8,0.93-2.44c-0.94-1.59-0.38-3.53,0.88-5.01c3.08-3.62,7.14-5.28,11.77-5.67
		c1.18-0.1,2.6,0.01,2.83,1.54c0.27,1.81-0.91,3.02-2.37,3.8c-0.95,0.51-2.28,1.37-2.96-0.27c-0.38-0.93-0.77-0.68-1.26-0.4
		C542.39,598.47,540.32,599.43,539.06,601.56z"/>
	<path class="st1" d="M593.38,591.28c-6.68,6.02-12.73,11.51-19.98,15.42c-1.67,0.9-3.72,2.51-5.48,0.9c-1.8-1.65-0.42-3.9,0.53-5.5
		c6.41-10.86,15.49-18.58,27.58-22.47c1.4-0.45,3.68-1.14,4.42,0.26c0.95,1.79-1.21,2.84-2.45,3.9c-1.6,1.36-3.41,2.42-5.36,3.21
		c-0.73,0.3-1.86,0.84-2.25,0.54c-2.28-1.72-2.81,0.19-3.08,1.58c-0.4,2.08,1.34,2.39,2.88,2.52
		C590.95,591.71,591.74,591.48,593.38,591.28z"/>
	<path class="st1" d="M404.93,605.95c-1.2-0.49-2.32,0.1-3.75,0.37c0.87-2.59,2.54-4.53,3.69-6.74c0.75-1.44,1.81,0.02,2.81-0.21
		c3.2-0.74,6.54-0.72,9.72,0.38c3.55,1.23,3.95,3.11,1.19,5.58c-3.24,2.9-7.01,4.47-11.46,4.12
		C404.12,609.21,403.71,608.58,404.93,605.95z"/>
	<path class="st1" d="M612.18,597.13c-3.04,5.26-7.05,9.43-11.84,12.88c-0.38,0.28-0.81,0.74-1.33,0.41
		c-0.65-0.41-0.35-1.04-0.22-1.61C599.95,603.78,606.74,597.76,612.18,597.13z"/>
	<path class="st1" d="M632.83,625.75c0.18-2.29,1.14-3.83,1.99-5.35c2.42-4.35,5.01-8.6,7.4-12.97c0.92-1.68,2.41-2.44,3.88-1.91
		c1.73,0.61,1.81,2.5,1.27,4.12c-1.61,4.9-5.1,8.5-8.68,11.97C637.08,623.17,635.51,624.91,632.83,625.75z"/>
	<path class="st1" d="M428.73,608.56c0.17-3.53,6.64-11.26,10.3-12.06c1.34-0.29,2.72,1.36,2.06,2.72
		c-2.19,4.52-5.07,8.52-9.57,11.04C430.07,611.07,428.54,611.44,428.73,608.56z"/>
	<path class="st1" d="M659.69,608.44c0.28-3.56,6.27-10.66,10.05-11.91c0.97-0.32,1.1,0.24,1.63,0.6c0.78,0.52,1.17,0.94,0.72,1.89
		c-2.23,4.76-5.21,8.89-9.95,11.43C660.57,611.29,659.43,610.86,659.69,608.44z"/>
</g>
<g>
	<path class="st2" d="M522.59,533.14c5.62-1.78,11.21,1.36,11.36,6.4c0.11,3.68-2.62,5.85-6.23,4.96
		c-7.1-1.76-12.18-10.31-10.56-17.82c0.56-2.62,1.64-5.05,2.82-7.44c2.72-5.52,5.41-11.05,8.13-16.57c0.54-1.1,1-2.57,2.67-1.78
		c1.7,0.8,0.76,2.07,0.27,3.17c-0.4,0.9-1.05,1.77,0.18,2.57c2.15,1.39,2.47,3.68,2.63,5.91c0.34,4.82,2.37,8.46,6.06,11.73
		c10.76,9.56,21.21,19.47,31.78,29.25c2.89,2.68,2.79,5.26-0.3,7.68c-2.31,1.81-4.3,1.68-6.34-0.51
		c-5.83-6.28-11.65-12.57-17.46-18.88c-4.79-5.2-9.6-10.39-14.32-15.66c-2.86-3.2-6.8-3.09-10.51-3.75
		c-0.6-0.11-0.79,0.39-1.05,0.85c-3.51,6.13-1.04,14.27,5.37,17.54c1.08,0.55,2.41,1.43,3.31-0.01c0.88-1.41,0.12-2.71-1.06-3.69
		c-0.92-0.77-1.99-1.34-3.2-1.17C523.92,536.24,522.93,535.15,522.59,533.14z"/>
	<path class="st2" d="M516.61,492.4c0.5-0.83,0.7-1.18,0.91-1.52c0.56-0.9,1.18-1.65,2.4-1c1.22,0.65,0.97,1.58,0.5,2.55
		c-1.38,2.84-2.76,5.67-4.15,8.5c-2.09,4.24-4.2,8.48-6.27,12.73c-0.59,1.21-1.22,2.4-2.77,1.54c-1.51-0.83-0.7-2.09-0.09-3
		c0.99-1.49,0.61-2.44-0.63-3.58c-2.27-2.07-4.37-4.34-6.56-6.5c-0.83-0.82-1.56-1.64-0.5-2.74c1.04-1.08,1.93-0.46,2.76,0.38
		c2.06,2.06,4.1,4.13,6.2,6.16c0.37,0.35,0.72,1.38,1.49,0.51c0.54-0.61,0.58-1.24-0.14-1.93c-2.05-1.95-4.02-3.98-6.02-5.98
		c-0.84-0.84-1.79-1.7-0.54-2.91c1.28-1.24,2.08-0.14,2.9,0.67c1.6,1.58,3.16,3.19,4.78,4.75c0.35,0.33,0.68,1.24,1.34,0.57
		c0.5-0.51,0.85-1.19,0.06-1.93c-1.63-1.54-3.19-3.16-4.78-4.75c-0.85-0.85-1.78-1.86-0.74-2.99c1.2-1.3,2.23-0.23,3.14,0.66
		c1.12,1.11,2.2,2.27,3.37,3.34c0.38,0.35,0.72,1.44,1.5,0.55c0.52-0.59,0.59-1.29-0.14-1.96c-1.29-1.18-2.49-2.46-3.72-3.7
		c-0.75-0.76-1.42-1.61-0.37-2.54c0.86-0.77,1.87-0.63,2.65,0.23C514.29,489.7,515.35,490.96,516.61,492.4z"/>
	<path class="st2" d="M510.63,521.54c-1.3-0.29-2.08-0.91-1.33-2.43c1.32-2.68,2.66-5.34,3.9-8.05c2.87-6.23,6.32-12.18,8.82-18.59
		c0.37-0.94,1.16-2.32,2.8-1.66c1.66,0.67,1.05,1.8,0.53,2.86c-4.26,8.7-8.54,17.4-12.81,26.1
		C512.14,520.61,511.83,521.51,510.63,521.54z"/>
	<path class="st2" d="M529.38,496.66c-0.15,0.36-0.36,0.9-0.61,1.42c-3.81,7.72-7.63,15.45-11.46,23.17
		c-0.22,0.44-0.46,0.88-0.75,1.29c-0.51,0.73-1.18,0.86-1.95,0.42c-0.72-0.41-1.13-0.98-0.82-1.85c0.17-0.47,0.36-0.93,0.58-1.37
		c3.79-7.64,7.59-15.28,11.4-22.92c0.26-0.52,0.53-1.04,0.89-1.48c0.5-0.6,1.19-0.56,1.82-0.23
		C529.01,495.37,529.44,495.77,529.38,496.66z"/>
	<path class="st2" d="M516.48,536.83c1.02,1.59,2.1,2.82,1.94,4.78c-0.15,1.8,0.89,3.35,2.12,4.65c0.85,0.91,1.77,1.77,2.77,2.52
		c4.75,3.55,4.38,7.26,1.37,12.76c-0.47,0.87-1.27,1.11-2.12,0.62c-0.79-0.45-1.27-1.2-0.71-2.09c3.08-4.89,0.84-8.19-3.12-11.15
		c-2.15-1.61-3.21-4-3.64-6.62C514.75,540.37,515.08,538.55,516.48,536.83z"/>
</g>
</svg>
